<?xml version="1.0" encoding="UTF-8" standalone="no"?>
<svg
   xmlns:dc="http://purl.org/dc/elements/1.1/"
   xmlns:cc="http://creativecommons.org/ns#"
   xmlns:rdf="http://www.w3.org/1999/02/22-rdf-syntax-ns#"
   xmlns:svg="http://www.w3.org/2000/svg"
   xmlns="http://www.w3.org/2000/svg"
   xmlns:sodipodi="http://sodipodi.sourceforge.net/DTD/sodipodi-0.dtd"
   xmlns:inkscape="http://www.inkscape.org/namespaces/inkscape"
   enable-background="new 0 0 24 24"
   height="24px"
   id="Layer_1"
   version="1.1"
   viewBox="0 0 24 24"
   width="24px"
   xml:space="preserve"
   sodipodi:docname="plus.svg"
   inkscape:version="0.92.4 5da689c313, 2019-01-14"><metadata
     id="metadata935"><rdf:RDF><cc:Work
         rdf:about=""><dc:format>image/svg+xml</dc:format><dc:type
           rdf:resource="http://purl.org/dc/dcmitype/StillImage" /></cc:Work></rdf:RDF></metadata><defs
     id="defs933" /><sodipodi:namedview
     pagecolor="#ffffff"
     bordercolor="#666666"
     borderopacity="1"
     objecttolerance="10"
     gridtolerance="10"
     guidetolerance="10"
     inkscape:pageopacity="0"
     inkscape:pageshadow="2"
     inkscape:window-width="1916"
     inkscape:window-height="1051"
     id="namedview931"
     showgrid="false"
     inkscape:zoom="35.5"
     inkscape:cx="12"
     inkscape:cy="12"
     inkscape:window-x="1680"
     inkscape:window-y="25"
     inkscape:window-maximized="0"
     inkscape:current-layer="Layer_1" /><path
     clip-rule="evenodd"
     d="M22.5,14H14v8.5c0,0.276-0.224,0.5-0.5,0.5h-4C9.224,23,9,22.776,9,22.5V14H0.5  C0.224,14,0,13.776,0,13.5v-4C0,9.224,0.224,9,0.5,9H9V0.5C9,0.224,9.224,0,9.5,0h4C13.776,0,14,0.224,14,0.5V9h8.5  C22.776,9,23,9.224,23,9.5v4C23,13.776,22.776,14,22.5,14z"
     fill-rule="evenodd"
     id="path928"
     style="fill:#ffffff" /></svg>